<svg width="656" height="373" viewBox="0 0 656 373" fill="none" xmlns="http://www.w3.org/2000/svg">
<path d="M177.72 81.3945C155.776 87.6842 135.273 96.3511 117.335 110.408C99.3314 124.517 86.5675 142.524 78.0659 164.039C69.498 155.99 64.3152 146.48 62.1956 135.625C59.3214 120.897 61.5123 106.742 70.042 94.1082C80.6831 78.3449 95.4853 69.7427 114.739 69.0403C127.659 68.5682 139.174 72.2456 149.661 79.685C151.203 80.7783 153.402 81.4111 155.311 81.4409C161.655 81.537 168.006 81.2438 174.353 81.1427C175.474 81.1245 176.597 81.3051 177.72 81.3945Z" fill="#250127"/>
<path d="M477.816 81.3945C499.76 87.6842 520.263 96.3511 538.201 110.408C556.204 124.517 568.97 142.524 577.47 164.039C586.038 155.99 591.221 146.48 593.34 135.625C596.215 120.897 594.024 106.742 585.494 94.1082C574.853 78.3449 560.051 69.7427 540.797 69.0403C527.877 68.5682 516.362 72.2456 505.875 79.685C504.333 80.7783 502.134 81.4111 500.225 81.4409C493.881 81.537 487.53 81.2438 481.183 81.1427C480.062 81.1245 478.939 81.3051 477.816 81.3945Z" fill="#250127"/>
<path d="M361.929 267.727C361.792 283.009 346.406 303.584 327.658 303.415C308.91 303.244 293.9 282.394 294.038 267.113C294.177 251.832 309.412 247.881 328.16 248.05C346.907 248.22 362.067 252.446 361.929 267.727Z" fill="#250127"/>
<path d="M456.502 120.855C446.618 120.757 436.554 122.736 426.936 127.031C391.142 143.014 375.08 184.903 391.078 220.647C402.627 246.447 443.115 277.124 474.618 298.079C493.824 310.856 519.867 299.503 523.322 276.714C528.577 242.039 532.509 195.815 522.558 167.599C521.971 165.94 521.336 164.324 520.649 162.792C519.954 161.233 519.141 159.771 518.357 158.303C505.852 134.917 481.762 121.105 456.502 120.855ZM456.794 153.506C478.92 153.506 496.858 171.421 496.858 193.522C496.858 215.623 478.92 233.538 456.794 233.538C434.666 233.538 416.729 215.623 416.729 193.522C416.729 171.421 434.666 153.506 456.794 153.506Z" fill="#250127"/>
<path d="M201.885 120.855C176.626 121.105 152.535 134.917 140.031 158.303C139.244 159.771 138.435 161.235 137.74 162.792C137.052 164.324 136.417 165.942 135.831 167.599C125.88 195.815 129.812 242.039 135.068 276.714C138.523 299.503 164.564 310.853 183.771 298.077C215.275 277.122 255.762 246.447 267.309 220.647C283.308 184.904 267.247 143.014 231.451 127.031C221.833 122.736 211.769 120.757 201.885 120.855ZM201.899 153.506C224.025 153.506 241.964 171.421 241.964 193.522C241.964 215.623 224.025 233.538 201.899 233.538C179.771 233.538 161.832 215.623 161.832 193.522C161.832 171.421 179.771 153.506 201.899 153.506Z" fill="#250127"/>
</svg>
