<svg width="100%" height="100%" viewBox="0 0 656 374" fill="none" xmlns="http://www.w3.org/2000/svg">
<path d="M100.492 272.767C97.1023 272.767 94.4858 271.824 92.6373 269.94C90.7898 268.057 89.866 265.424 89.866 262.039V207.707H71.7328C68.8836 207.707 66.7098 206.958 65.2083 205.458C63.7058 203.959 62.9556 201.824 62.9556 199.056C62.9556 196.211 63.7058 194.058 65.2083 192.597C66.7098 191.136 68.8836 190.405 71.7328 190.405H129.25C132.097 190.405 134.274 191.136 135.775 192.597C137.277 194.058 138.027 196.211 138.027 199.056C138.027 201.824 137.277 203.959 135.775 205.458C134.274 206.958 132.097 207.707 129.25 207.707H111.117V262.039C111.117 265.424 110.231 268.057 108.461 269.94C106.688 271.824 104.032 272.767 100.492 272.767Z" fill="#F9F9F8"/>
<path d="M160.434 257.886C162.512 257.886 164.361 257.367 165.977 256.329C167.594 255.291 168.844 253.715 169.731 251.6C170.615 249.485 171.059 246.736 171.059 243.351C171.059 238.2 170.058 234.489 168.056 232.219C166.053 229.952 163.513 228.817 160.434 228.817C158.355 228.817 156.507 229.318 154.89 230.317C153.274 231.316 152.003 232.874 151.078 234.988C150.154 237.104 149.693 239.891 149.693 243.351C149.693 248.427 150.693 252.117 152.695 254.426C154.697 256.733 157.276 257.886 160.434 257.886ZM160.434 272.997C154.119 272.997 148.613 271.804 143.918 269.421C139.221 267.039 135.563 263.616 132.946 259.155C130.327 254.695 129.019 249.427 129.019 243.351C129.019 238.737 129.751 234.604 131.214 230.951C132.675 227.299 134.794 224.184 137.566 221.607C140.338 219.032 143.647 217.071 147.498 215.724C151.347 214.38 155.659 213.705 160.434 213.705C166.746 213.705 172.252 214.899 176.949 217.282C181.644 219.666 185.283 223.07 187.863 227.49C190.442 231.914 191.732 237.2 191.732 243.351C191.732 247.89 191 252.003 189.538 255.694C188.074 259.385 185.976 262.52 183.243 265.096C180.51 267.673 177.199 269.635 173.311 270.979C169.422 272.323 165.13 272.997 160.434 272.997Z" fill="#F9F9F8"/>
<path d="M219.565 272.997C214.636 272.997 210.594 272.093 207.438 270.287C204.28 268.48 201.912 265.769 200.335 262.154C198.756 258.54 197.967 253.964 197.967 248.427V224.202C197.967 220.82 198.852 218.263 200.624 216.531C202.394 214.801 204.934 213.936 208.246 213.936C211.556 213.936 214.097 214.801 215.87 216.531C217.638 218.263 218.525 220.82 218.525 224.202V249.003C218.525 251.772 219.103 253.848 220.258 255.233C221.413 256.617 223.221 257.309 225.686 257.309C228.458 257.309 230.728 256.31 232.5 254.311C234.271 252.311 235.156 249.658 235.156 246.35V224.202C235.156 220.82 236.041 218.263 237.812 216.531C239.583 214.801 242.125 213.936 245.436 213.936C248.746 213.936 251.286 214.801 253.058 216.531C254.829 218.263 255.715 220.82 255.715 224.202V262.385C255.715 269.306 252.403 272.766 245.781 272.766C242.548 272.766 240.045 271.881 238.275 270.114C236.503 268.345 235.619 265.769 235.619 262.385V255.694L237.466 261.346C235.772 265.115 233.405 268 230.364 269.997C227.321 271.997 223.723 272.997 219.565 272.997Z" fill="#F9F9F8"/>
<path d="M275.348 272.767C271.959 272.767 269.361 271.882 267.552 270.113C265.742 268.345 264.838 265.77 264.838 262.386V224.203C264.838 220.897 265.704 218.36 267.436 216.589C269.169 214.822 271.653 213.936 274.886 213.936C278.12 213.936 280.584 214.822 282.278 216.589C283.971 218.36 284.819 220.897 284.819 224.203V228.932H283.664C284.433 224.318 286.416 220.667 289.612 217.974C292.806 215.282 296.791 213.861 301.565 213.705C303.797 213.629 305.472 214.187 306.589 215.378C307.704 216.571 308.302 218.781 308.38 222.011C308.38 224.78 307.802 226.972 306.646 228.586C305.492 230.201 303.298 231.164 300.065 231.47L297.408 231.701C293.325 232.086 290.363 233.22 288.514 235.104C286.667 236.989 285.742 239.775 285.742 243.467V262.386C285.742 265.77 284.857 268.345 283.087 270.113C281.314 271.882 278.735 272.767 275.348 272.767Z" fill="#F9F9F8"/>
<path d="M322.238 272.767C319.004 272.767 316.501 271.804 314.73 269.883C312.958 267.962 312.074 265.193 312.074 261.578V225.125C312.074 221.513 312.958 218.744 314.73 216.821C316.501 214.898 319.004 213.936 322.238 213.936C325.547 213.936 328.108 214.898 329.918 216.821C331.726 218.744 332.632 221.513 332.632 225.125V261.578C332.632 265.193 331.745 267.962 329.976 269.883C328.203 271.804 325.625 272.767 322.238 272.767Z" fill="#F9F9F8"/>
<path d="M364.276 272.997C360.887 272.997 357.443 272.747 353.939 272.247C350.435 271.746 347.26 270.845 344.411 269.537C342.485 268.77 341.12 267.731 340.311 266.422C339.503 265.115 339.116 263.731 339.157 262.27C339.194 260.809 339.618 259.483 340.426 258.29C341.235 257.098 342.312 256.252 343.66 255.752C345.006 255.253 346.527 255.31 348.222 255.925C351.456 257.079 354.362 257.906 356.942 258.405C359.521 258.906 362.004 259.155 364.391 259.155C367.239 259.155 369.28 258.751 370.513 257.943C371.744 257.136 372.361 256.079 372.361 254.771C372.361 253.618 371.957 252.735 371.148 252.118C370.34 251.503 369.202 251.08 367.741 250.849L354.921 248.773C350.146 247.928 346.45 246.177 343.834 243.524C341.215 240.872 339.907 237.393 339.907 233.085C339.907 229.087 341.042 225.645 343.313 222.761C345.585 219.877 348.703 217.647 352.669 216.07C356.633 214.494 361.196 213.705 366.355 213.705C369.819 213.705 372.975 213.956 375.825 214.455C378.672 214.956 381.445 215.86 384.141 217.166C385.833 217.858 387.029 218.858 387.721 220.165C388.414 221.475 388.683 222.838 388.53 224.26C388.374 225.684 387.894 226.991 387.086 228.182C386.278 229.376 385.18 230.183 383.794 230.604C382.409 231.029 380.792 230.932 378.944 230.317C376.403 229.318 374.151 228.586 372.187 228.124C370.225 227.663 368.394 227.432 366.701 227.432C363.543 227.432 361.311 227.856 360.003 228.702C358.693 229.549 358.039 230.624 358.039 231.932C358.039 232.931 358.386 233.758 359.079 234.412C359.772 235.066 360.85 235.507 362.313 235.738L375.133 237.93C380.06 238.7 383.852 240.372 386.509 242.947C389.165 245.525 390.493 249.003 390.493 253.387C390.493 259.616 388.106 264.443 383.333 267.864C378.558 271.287 372.205 272.997 364.276 272.997Z" fill="#F9F9F8"/>
<path d="M408.162 314.09C404.774 314.09 402.138 313.147 400.251 311.263C398.364 309.381 397.422 306.67 397.422 303.131V224.656C397.422 221.12 398.364 218.409 400.251 216.524C402.138 214.64 404.889 213.699 408.51 213.699H446.968C449.741 213.699 451.82 214.39 453.205 215.774C454.592 217.159 455.284 219.16 455.284 221.772C455.284 224.465 454.592 226.521 453.205 227.944C451.82 229.368 449.741 230.078 446.968 230.078H418.673V246.459H444.428C447.122 246.459 449.181 247.151 450.606 248.534C452.031 249.919 452.744 251.92 452.744 254.533C452.744 257.225 452.031 259.263 450.606 260.647C449.181 262.03 447.122 262.723 444.428 262.723H418.673V303.131C418.673 310.438 415.168 314.09 408.162 314.09Z" fill="#F9F9F8"/>
<path d="M477.459 272.997C473.07 272.997 469.201 272.189 465.851 270.575C462.503 268.96 459.884 266.75 457.998 263.943C456.111 261.135 455.169 257.925 455.169 254.311C455.169 250.157 456.246 246.889 458.403 244.505C460.557 242.122 464.023 240.41 468.797 239.371C473.57 238.333 479.923 237.814 487.853 237.814H494.205V247.504H487.853C484.851 247.504 482.368 247.717 480.404 248.138C478.441 248.562 476.997 249.216 476.073 250.099C475.149 250.984 474.687 252.118 474.687 253.503C474.687 255.272 475.323 256.733 476.592 257.886C477.863 259.04 479.691 259.616 482.079 259.616C484.002 259.616 485.717 259.195 487.218 258.348C488.72 257.502 489.932 256.328 490.856 254.829C491.78 253.33 492.241 251.581 492.241 249.581V236.199C492.241 233.432 491.529 231.47 490.106 230.317C488.68 229.163 486.236 228.586 482.771 228.586C480.924 228.586 478.845 228.8 476.535 229.22C474.225 229.644 471.644 230.394 468.797 231.47C466.718 232.239 464.946 232.355 463.484 231.816C462.02 231.278 460.886 230.356 460.077 229.047C459.269 227.741 458.882 226.319 458.923 224.78C458.96 223.241 459.46 221.78 460.423 220.396C461.385 219.012 462.867 217.936 464.87 217.166C468.565 215.782 471.974 214.859 475.091 214.398C478.209 213.936 481.077 213.705 483.696 213.705C490.008 213.705 495.226 214.61 499.345 216.416C503.463 218.224 506.544 220.992 508.584 224.722C510.624 228.453 511.645 233.239 511.645 239.084V262.385C511.645 265.769 510.837 268.345 509.22 270.114C507.602 271.881 505.253 272.766 502.175 272.766C499.016 272.766 496.611 271.881 494.956 270.114C493.299 268.345 492.473 265.769 492.473 262.385V259.385L493.166 261.001C492.781 263.462 491.896 265.577 490.51 267.345C489.124 269.114 487.314 270.499 485.081 271.497C482.847 272.496 480.306 272.997 477.459 272.997Z" fill="#F9F9F8"/>
<path d="M530.586 272.767C527.352 272.767 524.849 271.804 523.078 269.883C521.306 267.962 520.422 265.193 520.422 261.578V225.125C520.422 221.513 521.306 218.744 523.078 216.821C524.849 214.898 527.352 213.936 530.586 213.936C533.895 213.936 536.457 214.898 538.266 216.821C540.074 218.744 540.98 221.513 540.98 225.125V261.578C540.98 265.193 540.094 267.962 538.324 269.883C536.551 271.804 533.973 272.767 530.586 272.767Z" fill="#F9F9F8"/>
<path d="M560.497 272.767C557.108 272.767 554.51 271.882 552.701 270.113C550.891 268.345 549.987 265.77 549.987 262.386V224.203C549.987 220.897 550.853 218.36 552.585 216.589C554.318 214.822 556.802 213.936 560.035 213.936C563.269 213.936 565.733 214.822 567.427 216.589C569.12 218.36 569.968 220.897 569.968 224.203V228.932H568.813C569.582 224.318 571.565 220.667 574.761 217.974C577.955 215.282 581.939 213.861 586.714 213.705C588.946 213.629 590.621 214.187 591.738 215.378C592.853 216.571 593.451 218.781 593.528 222.011C593.528 224.78 592.951 226.972 591.795 228.586C590.641 230.201 588.447 231.164 585.214 231.47L582.557 231.701C578.474 232.086 575.512 233.22 573.663 235.104C571.816 236.989 570.891 239.775 570.891 243.467V262.386C570.891 265.77 570.005 268.345 568.236 270.113C566.463 271.882 563.884 272.767 560.497 272.767Z" fill="#F9F9F8"/>
<path d="M337.031 66.9013C323.987 70.6401 311.8 75.7919 301.136 84.1479C290.435 92.5344 282.848 103.239 277.794 116.028C272.701 111.243 269.62 105.59 268.36 99.1377C266.652 90.3829 267.954 81.9688 273.024 74.4587C279.35 65.0885 288.149 59.9751 299.594 59.5576C307.274 59.2769 314.118 61.4629 320.352 65.8851C321.269 66.535 322.576 66.9111 323.711 66.9289C327.482 66.986 331.257 66.8117 335.03 66.7516C335.696 66.7408 336.364 66.8481 337.031 66.9013Z" fill="#250127"/>
<path d="M515.418 66.9013C528.463 70.6401 540.65 75.7919 551.313 84.1479C562.015 92.5344 569.603 103.239 574.656 116.028C579.749 111.243 582.83 105.59 584.09 99.1377C585.798 90.3829 584.496 81.9688 579.425 74.4587C573.1 65.0885 564.301 59.9751 552.856 59.5576C545.176 59.2769 538.331 61.4629 532.097 65.8851C531.181 66.535 529.873 66.9111 528.739 66.9289C524.968 66.986 521.193 66.8117 517.42 66.7516C516.753 66.7408 516.086 66.8481 515.418 66.9013Z" fill="#250127"/>
<path d="M446.532 177.663C446.45 186.747 437.304 198.977 426.16 198.877C415.015 198.776 406.093 186.381 406.175 177.298C406.258 168.214 415.314 165.866 426.458 165.966C437.602 166.067 446.613 168.579 446.532 177.663Z" fill="#250127"/>
<path d="M502.749 90.3573C496.873 90.2991 490.891 91.4755 485.174 94.0283C463.897 103.529 454.349 128.429 463.859 149.676C470.723 165.013 494.791 183.249 513.518 195.705C524.934 203.3 540.415 196.551 542.468 183.005C545.593 162.393 547.93 134.916 542.014 118.143C541.665 117.157 541.288 116.197 540.88 115.286C540.467 114.359 539.983 113.49 539.517 112.618C532.084 98.7163 517.764 90.5059 502.749 90.3573ZM502.922 109.766C516.075 109.766 526.738 120.415 526.738 133.553C526.738 146.69 516.075 157.339 502.922 157.339C489.768 157.339 479.107 146.69 479.107 133.553C479.107 120.415 489.768 109.766 502.922 109.766Z" fill="#250127"/>
<path d="M351.396 90.3573C336.381 90.5059 322.061 98.7163 314.628 112.618C314.16 113.49 313.679 114.36 313.266 115.286C312.857 116.197 312.48 117.158 312.131 118.143C306.216 134.916 308.553 162.393 311.678 183.005C313.731 196.551 329.211 203.298 340.628 195.703C359.355 183.247 383.422 165.013 390.286 149.676C399.796 128.43 390.249 103.529 368.971 94.0283C363.253 91.4755 357.271 90.2991 351.396 90.3573ZM351.404 109.766C364.557 109.766 375.22 120.415 375.22 133.553C375.22 146.69 364.557 157.339 351.404 157.339C338.251 157.339 327.587 146.69 327.587 133.553C327.587 120.415 338.251 109.766 351.404 109.766Z" fill="#250127"/>
</svg>
