<svg width="656" height="374" viewBox="0 0 656 374" fill="none" xmlns="http://www.w3.org/2000/svg">
<path d="M100.492 272.767C97.1023 272.767 94.4858 271.824 92.6373 269.94C90.7898 268.057 89.866 265.424 89.866 262.039V207.707H71.7328C68.8836 207.707 66.7098 206.958 65.2083 205.458C63.7058 203.959 62.9556 201.824 62.9556 199.056C62.9556 196.211 63.7058 194.058 65.2083 192.597C66.7098 191.136 68.8836 190.405 71.7328 190.405H129.25C132.097 190.405 134.274 191.136 135.775 192.597C137.277 194.058 138.027 196.211 138.027 199.056C138.027 201.824 137.277 203.959 135.775 205.458C134.274 206.958 132.097 207.707 129.25 207.707H111.117V262.039C111.117 265.424 110.231 268.057 108.461 269.94C106.688 271.824 104.032 272.767 100.492 272.767Z" fill="#00AAE3"/>
<path d="M160.434 257.886C162.512 257.886 164.361 257.367 165.977 256.329C167.594 255.291 168.844 253.715 169.731 251.599C170.615 249.485 171.059 246.736 171.059 243.351C171.059 238.2 170.058 234.489 168.056 232.219C166.053 229.952 163.513 228.817 160.434 228.817C158.355 228.817 156.507 229.318 154.89 230.317C153.274 231.316 152.003 232.874 151.078 234.988C150.154 237.104 149.693 239.891 149.693 243.351C149.693 248.427 150.693 252.117 152.695 254.426C154.697 256.733 157.276 257.886 160.434 257.886ZM160.434 272.997C154.119 272.997 148.613 271.804 143.918 269.421C139.221 267.039 135.563 263.616 132.946 259.155C130.327 254.695 129.019 249.427 129.019 243.351C129.019 238.737 129.751 234.604 131.214 230.951C132.675 227.299 134.794 224.184 137.566 221.607C140.338 219.032 143.647 217.071 147.498 215.724C151.347 214.38 155.659 213.705 160.434 213.705C166.746 213.705 172.252 214.899 176.949 217.282C181.644 219.666 185.283 223.069 187.863 227.49C190.442 231.914 191.732 237.2 191.732 243.351C191.732 247.89 191 252.003 189.538 255.694C188.074 259.385 185.976 262.52 183.243 265.095C180.51 267.673 177.199 269.635 173.311 270.979C169.422 272.323 165.13 272.997 160.434 272.997Z" fill="#00AAE3"/>
<path d="M219.565 272.997C214.636 272.997 210.594 272.093 207.438 270.287C204.28 268.48 201.912 265.769 200.335 262.153C198.756 258.54 197.967 253.964 197.967 248.427V224.202C197.967 220.82 198.852 218.262 200.624 216.531C202.394 214.801 204.934 213.936 208.246 213.936C211.556 213.936 214.097 214.801 215.87 216.531C217.638 218.262 218.525 220.82 218.525 224.202V249.003C218.525 251.772 219.103 253.848 220.258 255.233C221.413 256.616 223.221 257.309 225.686 257.309C228.458 257.309 230.728 256.31 232.5 254.31C234.271 252.31 235.156 249.658 235.156 246.35V224.202C235.156 220.82 236.041 218.262 237.812 216.531C239.583 214.801 242.125 213.936 245.436 213.936C248.746 213.936 251.286 214.801 253.058 216.531C254.829 218.262 255.715 220.82 255.715 224.202V262.385C255.715 269.306 252.403 272.766 245.781 272.766C242.548 272.766 240.045 271.881 238.275 270.113C236.503 268.345 235.619 265.769 235.619 262.385V255.694L237.466 261.346C235.772 265.115 233.405 267.999 230.364 269.997C227.321 271.997 223.723 272.997 219.565 272.997Z" fill="#00AAE3"/>
<path d="M275.348 272.767C271.959 272.767 269.361 271.882 267.552 270.113C265.742 268.345 264.838 265.77 264.838 262.386V224.203C264.838 220.897 265.704 218.36 267.436 216.589C269.169 214.822 271.653 213.936 274.886 213.936C278.12 213.936 280.584 214.822 282.278 216.589C283.971 218.36 284.819 220.897 284.819 224.203V228.932H283.664C284.433 224.318 286.416 220.667 289.612 217.974C292.806 215.282 296.791 213.861 301.565 213.705C303.797 213.629 305.472 214.187 306.589 215.378C307.704 216.571 308.302 218.781 308.38 222.011C308.38 224.78 307.802 226.972 306.646 228.586C305.492 230.201 303.298 231.164 300.065 231.47L297.408 231.701C293.325 232.086 290.363 233.22 288.514 235.104C286.667 236.989 285.742 239.775 285.742 243.467V262.386C285.742 265.77 284.857 268.345 283.087 270.113C281.314 271.882 278.735 272.767 275.348 272.767Z" fill="#00AAE3"/>
<path d="M322.238 272.767C319.004 272.767 316.501 271.804 314.73 269.883C312.958 267.962 312.074 265.193 312.074 261.578V225.125C312.074 221.513 312.958 218.744 314.73 216.821C316.501 214.898 319.004 213.936 322.238 213.936C325.547 213.936 328.108 214.898 329.918 216.821C331.726 218.744 332.632 221.513 332.632 225.125V261.578C332.632 265.193 331.745 267.962 329.976 269.883C328.203 271.804 325.625 272.767 322.238 272.767Z" fill="#00AAE3"/>
<path d="M364.276 272.997C360.887 272.997 357.443 272.746 353.939 272.247C350.435 271.746 347.26 270.845 344.411 269.536C342.485 268.769 341.12 267.731 340.311 266.422C339.503 265.115 339.116 263.731 339.157 262.27C339.194 260.809 339.618 259.483 340.426 258.289C341.235 257.098 342.312 256.252 343.66 255.752C345.006 255.253 346.527 255.31 348.222 255.925C351.456 257.078 354.362 257.905 356.942 258.405C359.521 258.906 362.004 259.155 364.391 259.155C367.239 259.155 369.28 258.75 370.513 257.943C371.744 257.135 372.361 256.079 372.361 254.771C372.361 253.618 371.957 252.735 371.148 252.117C370.34 251.503 369.202 251.08 367.741 250.849L354.921 248.773C350.146 247.928 346.45 246.177 343.834 243.524C341.215 240.871 339.907 237.393 339.907 233.085C339.907 229.087 341.042 225.644 343.313 222.76C345.585 219.877 348.703 217.647 352.669 216.069C356.633 214.494 361.196 213.705 366.355 213.705C369.819 213.705 372.975 213.955 375.825 214.455C378.672 214.956 381.445 215.86 384.141 217.165C385.833 217.858 387.029 218.858 387.721 220.165C388.414 221.474 388.683 222.838 388.53 224.26C388.374 225.684 387.894 226.99 387.086 228.182C386.278 229.375 385.18 230.183 383.794 230.604C382.409 231.029 380.792 230.932 378.944 230.317C376.403 229.317 374.151 228.586 372.187 228.124C370.225 227.663 368.394 227.432 366.701 227.432C363.543 227.432 361.311 227.856 360.003 228.702C358.693 229.549 358.039 230.624 358.039 231.932C358.039 232.931 358.386 233.758 359.079 234.412C359.772 235.066 360.85 235.507 362.313 235.737L375.133 237.929C380.06 238.699 383.852 240.371 386.509 242.947C389.165 245.525 390.493 249.003 390.493 253.387C390.493 259.616 388.106 264.443 383.333 267.863C378.558 271.287 372.205 272.997 364.276 272.997Z" fill="#00AAE3"/>
<path d="M408.162 314.09C404.774 314.09 402.138 313.147 400.251 311.263C398.364 309.381 397.422 306.67 397.422 303.131V224.656C397.422 221.12 398.364 218.409 400.251 216.524C402.138 214.64 404.889 213.699 408.51 213.699H446.968C449.741 213.699 451.82 214.39 453.205 215.774C454.592 217.159 455.284 219.16 455.284 221.772C455.284 224.465 454.592 226.521 453.205 227.944C451.82 229.368 449.741 230.078 446.968 230.078H418.673V246.459H444.428C447.122 246.459 449.181 247.151 450.606 248.534C452.031 249.919 452.744 251.92 452.744 254.533C452.744 257.225 452.031 259.263 450.606 260.647C449.181 262.03 447.122 262.723 444.428 262.723H418.673V303.131C418.673 310.438 415.168 314.09 408.162 314.09Z" fill="#00AAE3"/>
<path d="M477.459 272.997C473.07 272.997 469.201 272.189 465.851 270.574C462.503 268.959 459.884 266.75 457.998 263.942C456.111 261.135 455.169 257.925 455.169 254.31C455.169 250.157 456.246 246.889 458.403 244.505C460.557 242.122 464.023 240.41 468.797 239.371C473.57 238.333 479.923 237.814 487.853 237.814H494.205V247.503H487.853C484.851 247.503 482.368 247.717 480.404 248.137C478.441 248.562 476.997 249.216 476.073 250.099C475.149 250.984 474.687 252.117 474.687 253.503C474.687 255.271 475.323 256.733 476.592 257.886C477.863 259.04 479.691 259.616 482.079 259.616C484.002 259.616 485.717 259.194 487.218 258.348C488.72 257.502 489.932 256.328 490.856 254.828C491.78 253.33 492.241 251.581 492.241 249.581V236.199C492.241 233.431 491.529 231.47 490.106 230.317C488.68 229.163 486.236 228.586 482.771 228.586C480.924 228.586 478.845 228.799 476.535 229.22C474.225 229.644 471.644 230.394 468.797 231.47C466.718 232.239 464.946 232.355 463.484 231.815C462.02 231.278 460.886 230.356 460.077 229.046C459.269 227.741 458.882 226.319 458.923 224.78C458.96 223.241 459.46 221.78 460.423 220.396C461.385 219.012 462.867 217.935 464.87 217.165C468.565 215.782 471.974 214.858 475.091 214.397C478.209 213.936 481.077 213.705 483.696 213.705C490.008 213.705 495.226 214.61 499.345 216.416C503.463 218.224 506.544 220.992 508.584 224.722C510.624 228.453 511.645 233.239 511.645 239.083V262.385C511.645 265.769 510.837 268.345 509.22 270.113C507.602 271.881 505.253 272.766 502.175 272.766C499.016 272.766 496.611 271.881 494.956 270.113C493.299 268.345 492.473 265.769 492.473 262.385V259.384L493.166 261C492.781 263.462 491.896 265.577 490.51 267.345C489.124 269.114 487.314 270.498 485.081 271.497C482.847 272.495 480.306 272.997 477.459 272.997Z" fill="#00AAE3"/>
<path d="M530.586 272.767C527.352 272.767 524.849 271.804 523.078 269.883C521.306 267.962 520.422 265.193 520.422 261.578V225.125C520.422 221.513 521.306 218.744 523.078 216.821C524.849 214.898 527.352 213.936 530.586 213.936C533.895 213.936 536.457 214.898 538.266 216.821C540.074 218.744 540.98 221.513 540.98 225.125V261.578C540.98 265.193 540.094 267.962 538.324 269.883C536.551 271.804 533.973 272.767 530.586 272.767Z" fill="#00AAE3"/>
<path d="M560.497 272.767C557.108 272.767 554.51 271.882 552.701 270.113C550.891 268.345 549.987 265.77 549.987 262.386V224.203C549.987 220.897 550.853 218.36 552.585 216.589C554.318 214.822 556.802 213.936 560.035 213.936C563.269 213.936 565.733 214.822 567.427 216.589C569.12 218.36 569.968 220.897 569.968 224.203V228.932H568.813C569.582 224.318 571.565 220.667 574.761 217.974C577.955 215.282 581.939 213.861 586.714 213.705C588.946 213.629 590.621 214.187 591.738 215.378C592.853 216.571 593.451 218.781 593.528 222.011C593.528 224.78 592.951 226.972 591.795 228.586C590.641 230.201 588.447 231.164 585.214 231.47L582.557 231.701C578.474 232.086 575.512 233.22 573.663 235.104C571.816 236.989 570.891 239.775 570.891 243.467V262.386C570.891 265.77 570.005 268.345 568.236 270.113C566.463 271.882 563.884 272.767 560.497 272.767Z" fill="#00AAE3"/>
<path d="M337.031 66.9012C323.987 70.64 311.8 75.7919 301.136 84.1479C290.435 92.5344 282.848 103.239 277.794 116.028C272.701 111.243 269.62 105.59 268.36 99.1376C266.652 90.3828 267.954 81.9688 273.024 74.4586C279.35 65.0884 288.149 59.975 299.594 59.5575C307.274 59.2769 314.118 61.4629 320.352 65.885C321.269 66.5349 322.576 66.9111 323.711 66.9288C327.482 66.9859 331.257 66.8116 335.03 66.7516C335.696 66.7407 336.364 66.8481 337.031 66.9012Z" fill="#250127"/>
<path d="M515.418 66.9012C528.463 70.64 540.65 75.7919 551.313 84.1479C562.015 92.5344 569.603 103.239 574.656 116.028C579.749 111.243 582.83 105.59 584.09 99.1376C585.798 90.3828 584.496 81.9688 579.425 74.4586C573.1 65.0884 564.301 59.975 552.856 59.5575C545.176 59.2769 538.331 61.4629 532.097 65.885C531.181 66.5349 529.873 66.9111 528.739 66.9288C524.968 66.9859 521.193 66.8116 517.42 66.7516C516.753 66.7407 516.086 66.8481 515.418 66.9012Z" fill="#250127"/>
<path d="M446.532 177.663C446.45 186.747 437.304 198.977 426.16 198.877C415.015 198.776 406.093 186.381 406.175 177.298C406.258 168.214 415.314 165.866 426.458 165.966C437.602 166.067 446.613 168.579 446.532 177.663Z" fill="#250127"/>
<path d="M82.849 312.601C82.6055 312.601 82.4108 312.536 82.2648 312.406C82.1187 312.276 82.0295 312.098 81.997 311.871C81.9808 311.66 82.0214 311.442 82.1187 311.215L83.7983 307.446V308.297L79.1247 297.454C79.0273 297.211 78.9949 296.984 79.0273 296.773C79.0598 296.563 79.1571 296.392 79.3194 296.263C79.4817 296.133 79.7089 296.068 80.001 296.068C80.2606 296.068 80.4635 296.125 80.6095 296.238C80.7556 296.352 80.8854 296.554 80.999 296.846L84.991 306.62H84.3338L88.3746 296.846C88.5044 296.554 88.6423 296.352 88.7884 296.238C88.9344 296.125 89.1454 296.068 89.4212 296.068C89.6809 296.068 89.8756 296.133 90.0054 296.263C90.1515 296.392 90.2326 296.563 90.2489 296.773C90.2813 296.968 90.2489 297.187 90.1515 297.43L83.92 311.823C83.7902 312.114 83.6441 312.317 83.4819 312.43C83.3358 312.544 83.1248 312.601 82.849 312.601Z" fill="#FF805E"/>
<path d="M97.4979 308.273C96.3457 308.273 95.3477 308.022 94.5038 307.519C93.66 307.017 93.0028 306.312 92.5322 305.404C92.0778 304.48 91.8506 303.394 91.8506 302.146C91.8506 301.206 91.9804 300.363 92.2401 299.618C92.4997 298.856 92.881 298.208 93.3841 297.673C93.8872 297.138 94.4795 296.733 95.1611 296.457C95.8589 296.166 96.6378 296.02 97.4979 296.02C98.6501 296.02 99.6481 296.271 100.492 296.773C101.336 297.276 101.985 297.989 102.439 298.913C102.91 299.82 103.145 300.898 103.145 302.146C103.145 303.086 103.015 303.929 102.756 304.675C102.496 305.42 102.115 306.069 101.612 306.62C101.109 307.155 100.508 307.568 99.8103 307.86C99.1288 308.135 98.3579 308.273 97.4979 308.273ZM97.4979 306.693C98.2281 306.693 98.8691 306.514 99.4209 306.158C99.9726 305.801 100.395 305.283 100.687 304.602C100.995 303.921 101.149 303.103 101.149 302.146C101.149 300.671 100.816 299.545 100.151 298.767C99.502 297.989 98.6176 297.6 97.4979 297.6C96.7514 297.6 96.1023 297.778 95.5505 298.135C95.015 298.475 94.5931 298.986 94.2848 299.666C93.9927 300.331 93.8466 301.158 93.8466 302.146C93.8466 303.605 94.1793 304.732 94.8446 305.526C95.51 306.304 96.3944 306.693 97.4979 306.693Z" fill="#FF805E"/>
<path d="M110.317 308.273C109.36 308.273 108.565 308.103 107.932 307.762C107.315 307.406 106.845 306.879 106.52 306.182C106.212 305.485 106.058 304.618 106.058 303.581V297.065C106.058 296.725 106.139 296.473 106.301 296.311C106.48 296.149 106.723 296.068 107.031 296.068C107.356 296.068 107.599 296.149 107.762 296.311C107.94 296.473 108.029 296.725 108.029 297.065V303.556C108.029 304.594 108.24 305.372 108.662 305.89C109.1 306.393 109.782 306.644 110.707 306.644C111.713 306.644 112.533 306.304 113.165 305.623C113.798 304.942 114.115 304.051 114.115 302.949V297.065C114.115 296.725 114.196 296.473 114.358 296.311C114.537 296.149 114.788 296.068 115.113 296.068C115.421 296.068 115.656 296.149 115.819 296.311C115.997 296.473 116.086 296.725 116.086 297.065V307.203C116.086 307.884 115.77 308.224 115.137 308.224C114.829 308.224 114.585 308.135 114.407 307.957C114.245 307.779 114.163 307.527 114.163 307.203V304.991L114.48 305.331C114.155 306.287 113.62 307.017 112.873 307.519C112.143 308.022 111.291 308.273 110.317 308.273Z" fill="#FF805E"/>
<path d="M120.773 308.224C120.449 308.224 120.197 308.135 120.019 307.957C119.857 307.779 119.775 307.527 119.775 307.203V297.065C119.775 296.741 119.857 296.498 120.019 296.336C120.181 296.157 120.416 296.068 120.725 296.068C121.033 296.068 121.268 296.157 121.431 296.336C121.609 296.498 121.698 296.741 121.698 297.065V299.034H121.455C121.715 298.078 122.21 297.341 122.94 296.822C123.67 296.303 124.571 296.028 125.642 295.995C125.885 295.979 126.08 296.036 126.226 296.166C126.372 296.279 126.453 296.482 126.469 296.773C126.486 297.049 126.421 297.268 126.275 297.43C126.129 297.592 125.901 297.689 125.593 297.722L125.204 297.77C124.1 297.867 123.248 298.224 122.648 298.84C122.064 299.44 121.771 300.266 121.771 301.32V307.203C121.771 307.527 121.682 307.779 121.504 307.957C121.341 308.135 121.098 308.224 120.773 308.224Z" fill="#FF805E"/>
<path d="M139.254 308.273C138.2 308.273 137.275 308.022 136.48 307.519C135.701 307.017 135.092 306.312 134.654 305.404C134.232 304.48 134.021 303.394 134.021 302.146C134.021 300.882 134.232 299.796 134.654 298.889C135.092 297.965 135.701 297.26 136.48 296.773C137.275 296.271 138.2 296.02 139.254 296.02C140.326 296.02 141.242 296.287 142.005 296.822C142.768 297.357 143.279 298.078 143.539 298.986H143.271V291.741C143.271 291.417 143.352 291.174 143.514 291.011C143.693 290.833 143.944 290.744 144.269 290.744C144.577 290.744 144.813 290.833 144.975 291.011C145.153 291.174 145.243 291.417 145.243 291.741V307.203C145.243 307.528 145.161 307.779 144.999 307.957C144.837 308.135 144.593 308.225 144.269 308.225C143.961 308.225 143.717 308.135 143.539 307.957C143.376 307.779 143.295 307.528 143.295 307.203V304.894L143.563 305.234C143.303 306.158 142.784 306.895 142.005 307.446C141.242 307.998 140.326 308.273 139.254 308.273ZM139.668 306.693C140.399 306.693 141.04 306.515 141.591 306.158C142.143 305.801 142.565 305.283 142.857 304.602C143.165 303.921 143.32 303.103 143.32 302.146C143.32 300.671 142.987 299.545 142.322 298.767C141.672 297.989 140.788 297.6 139.668 297.6C138.922 297.6 138.273 297.778 137.721 298.135C137.185 298.475 136.763 298.986 136.455 299.667C136.163 300.331 136.017 301.158 136.017 302.146C136.017 303.605 136.35 304.732 137.015 305.526C137.68 306.304 138.565 306.693 139.668 306.693Z" fill="#FF805E"/>
<path d="M149.94 308.176C149.615 308.176 149.372 308.087 149.21 307.908C149.047 307.714 148.966 307.446 148.966 307.106V297.162C148.966 296.822 149.047 296.563 149.21 296.384C149.372 296.206 149.615 296.117 149.94 296.117C150.248 296.117 150.492 296.206 150.67 296.384C150.849 296.563 150.938 296.822 150.938 297.162V307.106C150.938 307.446 150.849 307.714 150.67 307.908C150.508 308.087 150.265 308.176 149.94 308.176ZM149.94 293.394C149.534 293.394 149.218 293.289 148.991 293.078C148.763 292.851 148.65 292.551 148.65 292.178C148.65 291.789 148.763 291.498 148.991 291.303C149.218 291.092 149.534 290.987 149.94 290.987C150.362 290.987 150.678 291.092 150.889 291.303C151.117 291.498 151.23 291.789 151.23 292.178C151.23 292.551 151.117 292.851 150.889 293.078C150.678 293.289 150.362 293.394 149.94 293.394Z" fill="#FF805E"/>
<path d="M159.857 312.649C158.997 312.649 158.153 312.544 157.326 312.333C156.514 312.139 155.776 311.823 155.111 311.385C154.916 311.272 154.786 311.134 154.721 310.972C154.672 310.81 154.664 310.648 154.697 310.485C154.729 310.34 154.802 310.202 154.916 310.072C155.03 309.959 155.159 309.886 155.305 309.853C155.468 309.821 155.63 309.845 155.792 309.926C156.506 310.364 157.188 310.664 157.837 310.826C158.486 310.988 159.127 311.069 159.76 311.069C160.912 311.069 161.78 310.761 162.364 310.145C162.965 309.529 163.265 308.638 163.265 307.471V304.723H163.509C163.265 305.664 162.746 306.409 161.951 306.96C161.172 307.511 160.255 307.787 159.2 307.787C158.113 307.787 157.172 307.544 156.376 307.057C155.581 306.555 154.965 305.858 154.526 304.967C154.105 304.075 153.894 303.046 153.894 301.879C153.894 301.004 154.015 300.209 154.259 299.496C154.502 298.767 154.851 298.151 155.305 297.649C155.776 297.13 156.336 296.733 156.985 296.457C157.65 296.166 158.389 296.02 159.2 296.02C160.271 296.02 161.196 296.295 161.975 296.846C162.754 297.381 163.257 298.111 163.484 299.034L163.241 299.326V297.065C163.241 296.741 163.322 296.498 163.484 296.336C163.663 296.157 163.906 296.068 164.214 296.068C164.539 296.068 164.782 296.157 164.945 296.336C165.107 296.498 165.188 296.741 165.188 297.065V307.203C165.188 309.002 164.734 310.356 163.825 311.263C162.932 312.187 161.61 312.649 159.857 312.649ZM159.565 306.182C160.328 306.182 160.985 306.012 161.537 305.672C162.089 305.315 162.511 304.813 162.803 304.164C163.111 303.516 163.265 302.754 163.265 301.879C163.265 300.566 162.932 299.529 162.267 298.767C161.602 297.989 160.701 297.6 159.565 297.6C158.819 297.6 158.17 297.778 157.618 298.135C157.066 298.475 156.636 298.97 156.328 299.618C156.036 300.25 155.89 301.004 155.89 301.879C155.89 303.192 156.222 304.237 156.888 305.015C157.553 305.793 158.445 306.182 159.565 306.182Z" fill="#FF805E"/>
<path d="M169.86 308.176C169.536 308.176 169.292 308.087 169.13 307.908C168.968 307.714 168.887 307.446 168.887 307.106V297.162C168.887 296.822 168.968 296.563 169.13 296.384C169.292 296.206 169.536 296.117 169.86 296.117C170.169 296.117 170.412 296.206 170.591 296.384C170.769 296.563 170.858 296.822 170.858 297.162V307.106C170.858 307.446 170.769 307.714 170.591 307.908C170.428 308.087 170.185 308.176 169.86 308.176ZM169.86 293.394C169.455 293.394 169.138 293.289 168.911 293.078C168.684 292.851 168.57 292.551 168.57 292.178C168.57 291.789 168.684 291.498 168.911 291.303C169.138 291.092 169.455 290.987 169.86 290.987C170.282 290.987 170.599 291.092 170.81 291.303C171.037 291.498 171.151 291.789 171.151 292.178C171.151 292.551 171.037 292.851 170.81 293.078C170.599 293.289 170.282 293.394 169.86 293.394Z" fill="#FF805E"/>
<path d="M179.291 308.273C178.366 308.273 177.587 308.111 176.954 307.787C176.337 307.447 175.875 306.96 175.566 306.328C175.258 305.68 175.104 304.894 175.104 303.97V297.77H173.473C173.197 297.77 172.986 297.705 172.84 297.576C172.694 297.43 172.621 297.235 172.621 296.992C172.621 296.749 172.694 296.563 172.84 296.433C172.986 296.303 173.197 296.239 173.473 296.239H175.104V293.443C175.104 293.119 175.193 292.875 175.372 292.713C175.55 292.535 175.794 292.446 176.102 292.446C176.41 292.446 176.646 292.535 176.808 292.713C176.986 292.875 177.076 293.119 177.076 293.443V296.239H180.143C180.419 296.239 180.63 296.303 180.776 296.433C180.922 296.563 180.995 296.749 180.995 296.992C180.995 297.235 180.922 297.43 180.776 297.576C180.63 297.705 180.419 297.77 180.143 297.77H177.076V303.775C177.076 304.699 177.27 305.404 177.66 305.891C178.049 306.361 178.682 306.596 179.558 306.596C179.867 306.596 180.126 306.563 180.337 306.498C180.565 306.434 180.751 306.401 180.897 306.401C181.043 306.385 181.165 306.434 181.262 306.547C181.36 306.66 181.408 306.855 181.408 307.13C181.408 307.325 181.368 307.503 181.287 307.665C181.222 307.827 181.1 307.941 180.922 308.006C180.727 308.071 180.467 308.127 180.143 308.176C179.834 308.241 179.55 308.273 179.291 308.273Z" fill="#FF805E"/>
<path d="M186.779 308.273C185.967 308.273 185.237 308.119 184.588 307.811C183.955 307.487 183.452 307.049 183.079 306.498C182.706 305.947 182.519 305.331 182.519 304.651C182.519 303.775 182.738 303.086 183.176 302.584C183.631 302.082 184.369 301.725 185.391 301.514C186.43 301.304 187.842 301.198 189.627 301.198H190.722V302.487H189.651C188.337 302.487 187.298 302.552 186.535 302.681C185.789 302.795 185.262 302.997 184.953 303.289C184.661 303.581 184.515 303.994 184.515 304.529C184.515 305.193 184.742 305.736 185.197 306.158C185.667 306.579 186.3 306.79 187.095 306.79C187.744 306.79 188.312 306.636 188.799 306.328C189.302 306.02 189.692 305.599 189.968 305.064C190.26 304.529 190.406 303.913 190.406 303.216V300.445C190.406 299.44 190.203 298.718 189.797 298.281C189.392 297.827 188.726 297.6 187.801 297.6C187.233 297.6 186.665 297.673 186.097 297.819C185.529 297.965 184.929 298.2 184.296 298.524C184.069 298.637 183.874 298.678 183.712 298.645C183.55 298.597 183.42 298.508 183.322 298.378C183.225 298.248 183.168 298.102 183.152 297.94C183.136 297.762 183.168 297.592 183.249 297.43C183.347 297.268 183.493 297.138 183.687 297.041C184.401 296.684 185.107 296.425 185.805 296.263C186.503 296.101 187.168 296.02 187.801 296.02C188.824 296.02 189.667 296.19 190.333 296.53C190.998 296.854 191.493 297.357 191.818 298.038C192.142 298.702 192.304 299.561 192.304 300.615V307.203C192.304 307.527 192.223 307.779 192.061 307.957C191.915 308.135 191.696 308.224 191.404 308.224C191.095 308.224 190.86 308.135 190.698 307.957C190.536 307.779 190.454 307.527 190.454 307.203V305.307H190.674C190.544 305.923 190.292 306.45 189.919 306.887C189.562 307.325 189.116 307.665 188.58 307.908C188.045 308.151 187.444 308.273 186.779 308.273Z" fill="#FF805E"/>
<path d="M199.541 308.273C198.373 308.273 197.48 307.917 196.863 307.203C196.247 306.49 195.938 305.469 195.938 304.14V291.741C195.938 291.417 196.02 291.174 196.182 291.011C196.344 290.833 196.588 290.744 196.912 290.744C197.22 290.744 197.464 290.833 197.642 291.011C197.821 291.174 197.91 291.417 197.91 291.741V303.994C197.91 304.869 198.081 305.526 198.421 305.963C198.778 306.385 199.298 306.596 199.979 306.596C200.125 306.596 200.255 306.587 200.369 306.571C200.482 306.555 200.596 306.547 200.709 306.547C200.888 306.531 201.01 306.571 201.075 306.669C201.156 306.766 201.196 306.96 201.196 307.252C201.196 307.544 201.131 307.763 201.002 307.908C200.872 308.054 200.661 308.152 200.369 308.2C200.239 308.216 200.101 308.233 199.955 308.249C199.809 308.265 199.671 308.273 199.541 308.273Z" fill="#FF805E"/>
<path d="M214.187 308.273C213.262 308.273 212.483 308.111 211.85 307.787C211.233 307.447 210.771 306.96 210.462 306.328C210.154 305.68 210 304.894 210 303.97V297.77H208.369C208.093 297.77 207.882 297.705 207.736 297.576C207.59 297.43 207.517 297.235 207.517 296.992C207.517 296.749 207.59 296.563 207.736 296.433C207.882 296.303 208.093 296.239 208.369 296.239H210V293.443C210 293.119 210.089 292.875 210.268 292.713C210.446 292.535 210.69 292.446 210.998 292.446C211.306 292.446 211.542 292.535 211.704 292.713C211.882 292.875 211.972 293.119 211.972 293.443V296.239H215.039C215.315 296.239 215.526 296.303 215.672 296.433C215.818 296.563 215.891 296.749 215.891 296.992C215.891 297.235 215.818 297.43 215.672 297.576C215.526 297.705 215.315 297.77 215.039 297.77H211.972V303.775C211.972 304.699 212.166 305.404 212.556 305.891C212.945 306.361 213.578 306.596 214.454 306.596C214.763 306.596 215.022 306.563 215.233 306.498C215.461 306.434 215.647 306.401 215.793 306.401C215.939 306.385 216.061 306.434 216.158 306.547C216.256 306.66 216.304 306.855 216.304 307.13C216.304 307.325 216.264 307.503 216.183 307.665C216.118 307.827 215.996 307.941 215.818 308.006C215.623 308.071 215.363 308.127 215.039 308.176C214.73 308.241 214.446 308.273 214.187 308.273Z" fill="#FF805E"/>
<path d="M218.949 308.224C218.624 308.224 218.373 308.135 218.194 307.957C218.032 307.779 217.951 307.527 217.951 307.203V297.065C217.951 296.741 218.032 296.498 218.194 296.336C218.356 296.157 218.592 296.068 218.9 296.068C219.208 296.068 219.444 296.157 219.606 296.336C219.784 296.498 219.874 296.741 219.874 297.065V299.034H219.63C219.89 298.078 220.385 297.341 221.115 296.822C221.845 296.303 222.746 296.028 223.817 295.995C224.06 295.979 224.255 296.036 224.401 296.166C224.547 296.279 224.628 296.482 224.645 296.773C224.661 297.049 224.596 297.268 224.45 297.43C224.304 297.592 224.077 297.689 223.768 297.722L223.379 297.77C222.275 297.867 221.423 298.224 220.823 298.84C220.239 299.44 219.947 300.266 219.947 301.32V307.203C219.947 307.527 219.857 307.779 219.679 307.957C219.517 308.135 219.273 308.224 218.949 308.224Z" fill="#FF805E"/>
<path d="M230.232 308.273C229.421 308.273 228.691 308.119 228.042 307.811C227.409 307.487 226.906 307.049 226.533 306.498C226.159 305.947 225.973 305.331 225.973 304.651C225.973 303.775 226.192 303.086 226.63 302.584C227.084 302.082 227.823 301.725 228.845 301.514C229.884 301.304 231.295 301.198 233.08 301.198H234.176V302.487H233.105C231.79 302.487 230.752 302.552 229.989 302.681C229.243 302.795 228.715 302.997 228.407 303.289C228.115 303.581 227.969 303.994 227.969 304.529C227.969 305.193 228.196 305.736 228.65 306.158C229.121 306.579 229.754 306.79 230.549 306.79C231.198 306.79 231.766 306.636 232.253 306.328C232.756 306.02 233.145 305.599 233.421 305.064C233.713 304.529 233.859 303.913 233.859 303.216V300.445C233.859 299.44 233.657 298.718 233.251 298.281C232.845 297.827 232.18 297.6 231.255 297.6C230.687 297.6 230.119 297.673 229.551 297.819C228.983 297.965 228.382 298.2 227.75 298.524C227.522 298.637 227.328 298.678 227.165 298.645C227.003 298.597 226.873 298.508 226.776 298.378C226.679 298.248 226.622 298.102 226.606 297.94C226.589 297.762 226.622 297.592 226.703 297.43C226.8 297.268 226.946 297.138 227.141 297.041C227.855 296.684 228.561 296.425 229.259 296.263C229.957 296.101 230.622 296.02 231.255 296.02C232.277 296.02 233.121 296.19 233.786 296.53C234.452 296.854 234.947 297.357 235.271 298.038C235.596 298.702 235.758 299.561 235.758 300.615V307.203C235.758 307.527 235.677 307.779 235.515 307.957C235.369 308.135 235.149 308.224 234.857 308.224C234.549 308.224 234.314 308.135 234.151 307.957C233.989 307.779 233.908 307.527 233.908 307.203V305.307H234.127C233.997 305.923 233.746 306.45 233.373 306.887C233.016 307.325 232.569 307.665 232.034 307.908C231.498 308.151 230.898 308.273 230.232 308.273Z" fill="#FF805E"/>
<path d="M243.656 308.224C243.38 308.224 243.137 308.151 242.926 308.006C242.715 307.843 242.536 307.6 242.39 307.276L238.179 297.454C238.065 297.211 238.025 296.984 238.057 296.773C238.09 296.563 238.187 296.392 238.349 296.263C238.512 296.133 238.739 296.068 239.031 296.068C239.291 296.068 239.493 296.125 239.639 296.238C239.785 296.352 239.915 296.554 240.029 296.846L244.021 306.595H243.364L247.429 296.846C247.542 296.554 247.672 296.352 247.818 296.238C247.964 296.125 248.175 296.068 248.451 296.068C248.711 296.068 248.906 296.133 249.035 296.263C249.181 296.392 249.263 296.563 249.279 296.773C249.311 296.968 249.279 297.187 249.181 297.43L244.922 307.276C244.808 307.6 244.638 307.843 244.41 308.006C244.199 308.151 243.948 308.224 243.656 308.224Z" fill="#FF805E"/>
<path d="M256.989 308.273C255.739 308.273 254.66 308.03 253.751 307.544C252.859 307.041 252.161 306.336 251.658 305.428C251.171 304.521 250.928 303.435 250.928 302.171C250.928 300.939 251.171 299.869 251.658 298.961C252.145 298.038 252.81 297.316 253.654 296.798C254.514 296.279 255.504 296.02 256.624 296.02C257.419 296.02 258.133 296.157 258.766 296.433C259.399 296.692 259.934 297.073 260.372 297.576C260.827 298.078 261.167 298.686 261.395 299.399C261.638 300.112 261.76 300.915 261.76 301.806C261.76 302.065 261.687 302.26 261.541 302.389C261.395 302.503 261.184 302.56 260.908 302.56H252.437V301.271H260.445L260.056 301.587C260.056 300.712 259.926 299.974 259.666 299.375C259.407 298.759 259.025 298.289 258.522 297.965C258.036 297.64 257.419 297.478 256.672 297.478C255.845 297.478 255.139 297.673 254.555 298.062C253.987 298.435 253.557 298.961 253.265 299.642C252.972 300.307 252.826 301.085 252.826 301.976V302.122C252.826 303.613 253.183 304.748 253.897 305.526C254.628 306.304 255.658 306.693 256.989 306.693C257.541 306.693 258.084 306.62 258.62 306.474C259.171 306.328 259.707 306.085 260.226 305.745C260.453 305.599 260.656 305.534 260.835 305.55C261.03 305.55 261.184 305.607 261.297 305.72C261.411 305.818 261.484 305.947 261.516 306.109C261.565 306.255 261.549 306.417 261.468 306.595C261.403 306.774 261.265 306.928 261.054 307.057C260.518 307.446 259.886 307.746 259.155 307.957C258.425 308.168 257.703 308.273 256.989 308.273Z" fill="#FF805E"/>
<path d="M268.192 308.273C267.024 308.273 266.131 307.917 265.514 307.203C264.898 306.49 264.589 305.469 264.589 304.14V291.741C264.589 291.417 264.671 291.174 264.833 291.011C264.995 290.833 265.238 290.744 265.563 290.744C265.871 290.744 266.115 290.833 266.293 291.011C266.472 291.174 266.561 291.417 266.561 291.741V303.994C266.561 304.869 266.731 305.526 267.072 305.963C267.429 306.385 267.949 306.596 268.63 306.596C268.776 306.596 268.906 306.587 269.02 306.571C269.133 306.555 269.247 306.547 269.36 306.547C269.539 306.531 269.661 306.571 269.725 306.669C269.807 306.766 269.847 306.96 269.847 307.252C269.847 307.544 269.782 307.763 269.652 307.908C269.523 308.054 269.312 308.152 269.02 308.2C268.89 308.216 268.752 308.233 268.606 308.249C268.46 308.265 268.322 308.273 268.192 308.273Z" fill="#FF805E"/>
<path d="M281.816 308.273C281.005 308.273 280.274 308.119 279.625 307.811C278.992 307.487 278.489 307.049 278.116 306.498C277.743 305.947 277.556 305.331 277.556 304.651C277.556 303.775 277.775 303.086 278.213 302.584C278.668 302.082 279.406 301.725 280.428 301.514C281.467 301.304 282.879 301.198 284.664 301.198H285.759V302.487H284.688C283.374 302.487 282.335 302.552 281.573 302.681C280.826 302.795 280.299 302.997 279.99 303.289C279.698 303.581 279.552 303.994 279.552 304.529C279.552 305.193 279.779 305.736 280.234 306.158C280.704 306.579 281.337 306.79 282.132 306.79C282.782 306.79 283.349 306.636 283.836 306.328C284.339 306.02 284.729 305.599 285.005 305.064C285.297 304.529 285.443 303.913 285.443 303.216V300.445C285.443 299.44 285.24 298.718 284.834 298.281C284.429 297.827 283.763 297.6 282.838 297.6C282.27 297.6 281.702 297.673 281.134 297.819C280.566 297.965 279.966 298.2 279.333 298.524C279.106 298.637 278.911 298.678 278.749 298.645C278.587 298.597 278.457 298.508 278.359 298.378C278.262 298.248 278.205 298.102 278.189 297.94C278.173 297.762 278.205 297.592 278.286 297.43C278.384 297.268 278.53 297.138 278.725 297.041C279.439 296.684 280.144 296.425 280.842 296.263C281.54 296.101 282.205 296.02 282.838 296.02C283.861 296.02 284.705 296.19 285.37 296.53C286.035 296.854 286.53 297.357 286.855 298.038C287.179 298.702 287.342 299.561 287.342 300.615V307.203C287.342 307.527 287.26 307.779 287.098 307.957C286.952 308.135 286.733 308.224 286.441 308.224C286.133 308.224 285.897 308.135 285.735 307.957C285.573 307.779 285.492 307.527 285.492 307.203V305.307H285.711C285.581 305.923 285.329 306.45 284.956 306.887C284.599 307.325 284.153 307.665 283.617 307.908C283.082 308.151 282.481 308.273 281.816 308.273Z" fill="#FF805E"/>
<path d="M294.968 308.273C294.238 308.273 293.499 308.184 292.753 308.006C292.023 307.827 291.341 307.519 290.708 307.082C290.546 306.968 290.432 306.839 290.367 306.693C290.303 306.531 290.278 306.377 290.294 306.231C290.327 306.069 290.392 305.931 290.489 305.817C290.603 305.704 290.733 305.639 290.879 305.623C291.041 305.591 291.219 305.623 291.414 305.72C292.047 306.109 292.656 306.385 293.24 306.547C293.84 306.693 294.433 306.766 295.017 306.766C295.942 306.766 296.64 306.595 297.11 306.255C297.581 305.915 297.816 305.453 297.816 304.869C297.816 304.416 297.662 304.059 297.354 303.8C297.045 303.524 296.558 303.313 295.893 303.167L293.678 302.681C292.656 302.471 291.893 302.106 291.39 301.587C290.903 301.068 290.66 300.396 290.66 299.569C290.66 298.84 290.846 298.216 291.219 297.697C291.609 297.162 292.153 296.749 292.85 296.457C293.548 296.166 294.36 296.02 295.284 296.02C295.999 296.02 296.672 296.117 297.305 296.311C297.954 296.49 298.538 296.781 299.057 297.187C299.22 297.3 299.325 297.438 299.374 297.6C299.439 297.746 299.447 297.9 299.398 298.062C299.366 298.208 299.293 298.337 299.179 298.451C299.066 298.548 298.928 298.605 298.765 298.621C298.603 298.637 298.433 298.589 298.254 298.475C297.767 298.151 297.272 297.916 296.769 297.77C296.266 297.608 295.771 297.527 295.284 297.527C294.376 297.527 293.686 297.705 293.215 298.062C292.745 298.418 292.51 298.889 292.51 299.472C292.51 299.926 292.656 300.299 292.948 300.59C293.24 300.882 293.694 301.093 294.311 301.222L296.526 301.684C297.581 301.911 298.368 302.276 298.887 302.778C299.423 303.265 299.69 303.929 299.69 304.772C299.69 305.842 299.26 306.693 298.4 307.325C297.54 307.957 296.396 308.273 294.968 308.273Z" fill="#FF805E"/>
<path d="M306.663 308.273C305.933 308.273 305.195 308.184 304.448 308.006C303.718 307.827 303.036 307.519 302.404 307.082C302.241 306.968 302.128 306.839 302.063 306.693C301.998 306.531 301.974 306.377 301.99 306.231C302.022 306.069 302.087 305.931 302.184 305.817C302.298 305.704 302.428 305.639 302.574 305.623C302.736 305.591 302.915 305.623 303.109 305.72C303.742 306.109 304.351 306.385 304.935 306.547C305.536 306.693 306.128 306.766 306.712 306.766C307.637 306.766 308.335 306.595 308.805 306.255C309.276 305.915 309.511 305.453 309.511 304.869C309.511 304.416 309.357 304.059 309.049 303.8C308.74 303.524 308.254 303.313 307.588 303.167L305.373 302.681C304.351 302.471 303.588 302.106 303.085 301.587C302.598 301.068 302.355 300.396 302.355 299.569C302.355 298.84 302.541 298.216 302.915 297.697C303.304 297.162 303.848 296.749 304.546 296.457C305.243 296.166 306.055 296.02 306.98 296.02C307.694 296.02 308.367 296.117 309 296.311C309.649 296.49 310.233 296.781 310.753 297.187C310.915 297.3 311.021 297.438 311.069 297.6C311.134 297.746 311.142 297.9 311.094 298.062C311.061 298.208 310.988 298.337 310.874 298.451C310.761 298.548 310.623 298.605 310.461 298.621C310.298 298.637 310.128 298.589 309.949 298.475C309.463 298.151 308.968 297.916 308.465 297.77C307.962 297.608 307.467 297.527 306.98 297.527C306.071 297.527 305.381 297.705 304.911 298.062C304.44 298.418 304.205 298.889 304.205 299.472C304.205 299.926 304.351 300.299 304.643 300.59C304.935 300.882 305.389 301.093 306.006 301.222L308.221 301.684C309.276 301.911 310.063 302.276 310.582 302.778C311.118 303.265 311.386 303.929 311.386 304.772C311.386 305.842 310.956 306.693 310.096 307.325C309.235 307.957 308.091 308.273 306.663 308.273Z" fill="#FF805E"/>
<path d="M315.34 308.176C315.016 308.176 314.772 308.087 314.61 307.908C314.448 307.714 314.367 307.446 314.367 307.106V297.162C314.367 296.822 314.448 296.563 314.61 296.384C314.772 296.206 315.016 296.117 315.34 296.117C315.649 296.117 315.892 296.206 316.071 296.384C316.249 296.563 316.338 296.822 316.338 297.162V307.106C316.338 307.446 316.249 307.714 316.071 307.908C315.908 308.087 315.665 308.176 315.34 308.176ZM315.34 293.394C314.935 293.394 314.618 293.289 314.391 293.078C314.164 292.851 314.05 292.551 314.05 292.178C314.05 291.789 314.164 291.498 314.391 291.303C314.618 291.092 314.935 290.987 315.34 290.987C315.762 290.987 316.079 291.092 316.29 291.303C316.517 291.498 316.631 291.789 316.631 292.178C316.631 292.551 316.517 292.851 316.29 293.078C316.079 293.289 315.762 293.394 315.34 293.394Z" fill="#FF805E"/>
<path d="M324.016 308.273C323.286 308.273 322.548 308.184 321.801 308.006C321.071 307.827 320.389 307.519 319.757 307.082C319.594 306.968 319.481 306.839 319.416 306.693C319.351 306.531 319.327 306.377 319.343 306.231C319.375 306.069 319.44 305.931 319.537 305.817C319.651 305.704 319.781 305.639 319.927 305.623C320.089 305.591 320.268 305.623 320.462 305.72C321.095 306.109 321.704 306.385 322.288 306.547C322.889 306.693 323.481 306.766 324.065 306.766C324.99 306.766 325.688 306.595 326.158 306.255C326.629 305.915 326.864 305.453 326.864 304.869C326.864 304.416 326.71 304.059 326.402 303.8C326.094 303.524 325.607 303.313 324.941 303.167L322.726 302.681C321.704 302.471 320.941 302.106 320.438 301.587C319.951 301.068 319.708 300.396 319.708 299.569C319.708 298.84 319.894 298.216 320.268 297.697C320.657 297.162 321.201 296.749 321.899 296.457C322.596 296.166 323.408 296.02 324.333 296.02C325.047 296.02 325.72 296.117 326.353 296.311C327.002 296.49 327.587 296.781 328.106 297.187C328.268 297.3 328.374 297.438 328.422 297.6C328.487 297.746 328.495 297.9 328.447 298.062C328.414 298.208 328.341 298.337 328.227 298.451C328.114 298.548 327.976 298.605 327.814 298.621C327.651 298.637 327.481 298.589 327.302 298.475C326.816 298.151 326.321 297.916 325.818 297.77C325.315 297.608 324.82 297.527 324.333 297.527C323.424 297.527 322.734 297.705 322.264 298.062C321.793 298.418 321.558 298.889 321.558 299.472C321.558 299.926 321.704 300.299 321.996 300.59C322.288 300.882 322.742 301.093 323.359 301.222L325.574 301.684C326.629 301.911 327.416 302.276 327.935 302.778C328.471 303.265 328.739 303.929 328.739 304.772C328.739 305.842 328.309 306.693 327.449 307.325C326.589 307.957 325.444 308.273 324.016 308.273Z" fill="#FF805E"/>
<path d="M336.324 308.273C335.399 308.273 334.62 308.111 333.987 307.787C333.37 307.447 332.908 306.96 332.6 306.328C332.291 305.68 332.137 304.894 332.137 303.97V297.77H330.506C330.23 297.77 330.019 297.705 329.873 297.576C329.727 297.43 329.654 297.235 329.654 296.992C329.654 296.749 329.727 296.563 329.873 296.433C330.019 296.303 330.23 296.239 330.506 296.239H332.137V293.443C332.137 293.119 332.226 292.875 332.405 292.713C332.583 292.535 332.827 292.446 333.135 292.446C333.443 292.446 333.679 292.535 333.841 292.713C334.02 292.875 334.109 293.119 334.109 293.443V296.239H337.176C337.452 296.239 337.663 296.303 337.809 296.433C337.955 296.563 338.028 296.749 338.028 296.992C338.028 297.235 337.955 297.43 337.809 297.576C337.663 297.705 337.452 297.77 337.176 297.77H334.109V303.775C334.109 304.699 334.304 305.404 334.693 305.891C335.083 306.361 335.715 306.596 336.592 306.596C336.9 306.596 337.16 306.563 337.371 306.498C337.598 306.434 337.784 306.401 337.93 306.401C338.077 306.385 338.198 306.434 338.296 306.547C338.393 306.66 338.442 306.855 338.442 307.13C338.442 307.325 338.401 307.503 338.32 307.665C338.255 307.827 338.133 307.941 337.955 308.006C337.76 308.071 337.5 308.127 337.176 308.176C336.868 308.241 336.584 308.273 336.324 308.273Z" fill="#FF805E"/>
<path d="M343.812 308.273C343 308.273 342.27 308.119 341.621 307.811C340.988 307.487 340.485 307.049 340.112 306.498C339.738 305.947 339.552 305.331 339.552 304.651C339.552 303.775 339.771 303.086 340.209 302.584C340.663 302.082 341.402 301.725 342.424 301.514C343.463 301.304 344.874 301.198 346.66 301.198H347.755V302.487H346.684C345.369 302.487 344.331 302.552 343.568 302.681C342.822 302.795 342.294 302.997 341.986 303.289C341.694 303.581 341.548 303.994 341.548 304.529C341.548 305.193 341.775 305.736 342.229 306.158C342.7 306.579 343.333 306.79 344.128 306.79C344.777 306.79 345.345 306.636 345.832 306.328C346.335 306.02 346.724 305.599 347 305.064C347.292 304.529 347.438 303.913 347.438 303.216V300.445C347.438 299.44 347.236 298.718 346.83 298.281C346.424 297.827 345.759 297.6 344.834 297.6C344.266 297.6 343.698 297.673 343.13 297.819C342.562 297.965 341.962 298.2 341.329 298.524C341.102 298.637 340.907 298.678 340.744 298.645C340.582 298.597 340.452 298.508 340.355 298.378C340.258 298.248 340.201 298.102 340.185 297.94C340.168 297.762 340.201 297.592 340.282 297.43C340.379 297.268 340.525 297.138 340.72 297.041C341.434 296.684 342.14 296.425 342.838 296.263C343.536 296.101 344.201 296.02 344.834 296.02C345.856 296.02 346.7 296.19 347.365 296.53C348.031 296.854 348.526 297.357 348.85 298.038C349.175 298.702 349.337 299.561 349.337 300.615V307.203C349.337 307.527 349.256 307.779 349.094 307.957C348.948 308.135 348.729 308.224 348.437 308.224C348.128 308.224 347.893 308.135 347.731 307.957C347.568 307.779 347.487 307.527 347.487 307.203V305.307H347.706C347.576 305.923 347.325 306.45 346.952 306.887C346.595 307.325 346.148 307.665 345.613 307.908C345.077 308.151 344.477 308.273 343.812 308.273Z" fill="#FF805E"/>
<path d="M353.945 308.224C353.62 308.224 353.377 308.135 353.215 307.957C353.052 307.779 352.971 307.527 352.971 307.203V297.065C352.971 296.741 353.052 296.498 353.215 296.336C353.377 296.157 353.612 296.068 353.921 296.068C354.229 296.068 354.464 296.157 354.626 296.336C354.805 296.498 354.894 296.741 354.894 297.065V299.156L354.626 298.864C354.967 297.924 355.519 297.219 356.282 296.749C357.061 296.263 357.953 296.02 358.959 296.02C359.9 296.02 360.679 296.19 361.296 296.53C361.929 296.871 362.4 297.389 362.708 298.086C363.016 298.767 363.17 299.634 363.17 300.688V307.203C363.17 307.527 363.081 307.779 362.903 307.957C362.74 308.135 362.505 308.224 362.197 308.224C361.872 308.224 361.621 308.135 361.442 307.957C361.28 307.779 361.199 307.527 361.199 307.203V300.809C361.199 299.707 360.98 298.905 360.541 298.402C360.12 297.884 359.438 297.624 358.497 297.624C357.41 297.624 356.541 297.965 355.892 298.645C355.259 299.31 354.943 300.201 354.943 301.32V307.203C354.943 307.884 354.61 308.224 353.945 308.224Z" fill="#FF805E"/>
<path d="M371.553 308.273C370.628 308.273 369.849 308.111 369.216 307.787C368.599 307.447 368.137 306.96 367.829 306.328C367.52 305.68 367.366 304.894 367.366 303.97V297.77H365.735C365.459 297.77 365.248 297.705 365.102 297.576C364.956 297.43 364.883 297.235 364.883 296.992C364.883 296.749 364.956 296.563 365.102 296.433C365.248 296.303 365.459 296.239 365.735 296.239H367.366V293.443C367.366 293.119 367.455 292.875 367.634 292.713C367.812 292.535 368.056 292.446 368.364 292.446C368.672 292.446 368.908 292.535 369.07 292.713C369.249 292.875 369.338 293.119 369.338 293.443V296.239H372.405C372.681 296.239 372.892 296.303 373.038 296.433C373.184 296.563 373.257 296.749 373.257 296.992C373.257 297.235 373.184 297.43 373.038 297.576C372.892 297.705 372.681 297.77 372.405 297.77H369.338V303.775C369.338 304.699 369.533 305.404 369.922 305.891C370.312 306.361 370.944 306.596 371.821 306.596C372.129 306.596 372.389 306.563 372.6 306.498C372.827 306.434 373.013 306.401 373.159 306.401C373.306 306.385 373.427 306.434 373.525 306.547C373.622 306.66 373.671 306.855 373.671 307.13C373.671 307.325 373.63 307.503 373.549 307.665C373.484 307.827 373.362 307.941 373.184 308.006C372.989 308.071 372.729 308.127 372.405 308.176C372.097 308.241 371.813 308.273 371.553 308.273Z" fill="#FF805E"/>
<path d="M502.749 90.3575C496.873 90.2994 490.891 91.4757 485.174 94.0286C463.897 103.53 454.349 128.429 463.859 149.677C470.723 165.013 494.791 183.249 513.518 195.705C524.934 203.3 540.415 196.551 542.468 183.005C545.593 162.393 547.93 134.916 542.014 118.143C541.665 117.158 541.288 116.197 540.88 115.286C540.467 114.359 539.983 113.49 539.517 112.618C532.084 98.7166 517.764 90.5062 502.749 90.3575ZM502.922 109.766C516.075 109.766 526.738 120.415 526.738 133.553C526.738 146.691 516.075 157.34 502.922 157.34C489.768 157.34 479.107 146.691 479.107 133.553C479.107 120.415 489.768 109.766 502.922 109.766Z" fill="#250127"/>
<path d="M351.396 90.3575C336.381 90.5061 322.061 98.7166 314.628 112.618C314.16 113.49 313.679 114.36 313.266 115.286C312.857 116.197 312.48 117.159 312.131 118.143C306.216 134.916 308.553 162.393 311.678 183.005C313.731 196.551 329.211 203.298 340.628 195.704C359.355 183.247 383.422 165.013 390.286 149.677C399.796 128.43 390.249 103.53 368.971 94.0286C363.253 91.4757 357.271 90.2994 351.396 90.3575ZM351.404 109.766C364.557 109.766 375.22 120.415 375.22 133.553C375.22 146.691 364.557 157.34 351.404 157.34C338.251 157.34 327.587 146.691 327.587 133.553C327.587 120.415 338.251 109.766 351.404 109.766Z" fill="#250127"/>
</svg>
