<svg width="100%" height="100%" viewBox="0 0 16 16" fill="none"
  xmlns="http://www.w3.org/2000/svg">
  <path d="M8.00016 1.33325C4.32016 1.33325 1.3335 4.31992 1.3335 7.99992C1.3335 11.6799 4.32016 14.6666 8.00016 14.6666C11.6802 14.6666 14.6668 11.6799 14.6668 7.99992C14.6668 4.31992 11.6802 1.33325 8.00016 1.33325ZM8.00016 13.3333C5.06016 13.3333 2.66683 10.9399 2.66683 7.99992C2.66683 5.05992 5.06016 2.66659 8.00016 2.66659C10.9402 2.66659 13.3335 5.05992 13.3335 7.99992C13.3335 10.9399 10.9402 13.3333 8.00016 13.3333ZM10.7802 9.83992L10.0468 9.10659C10.5202 8.21992 10.4002 7.09992 9.6535 6.35325C9.1935 5.89325 8.60016 5.66659 8.00016 5.66659C7.98016 5.66659 7.96016 5.67325 7.94016 5.67325L8.66683 6.39992L7.96016 7.10659L6.0735 5.21992L7.96016 3.33325L8.66683 4.03992L8.02683 4.67992C8.8735 4.68659 9.7135 4.99992 10.3602 5.63992C11.4935 6.77992 11.6335 8.54659 10.7802 9.83992ZM9.92683 10.7799L8.04016 12.6666L7.3335 11.9599L7.96683 11.3266C7.12683 11.3199 6.28683 10.9933 5.64683 10.3533C4.50683 9.21325 4.36683 7.45325 5.22016 6.15992L5.9535 6.89325C5.48016 7.77992 5.60016 8.89992 6.34683 9.64659C6.8135 10.1133 7.4335 10.3399 8.0535 10.3199L7.3335 9.59992L8.04016 8.89325L9.92683 10.7799Z" fill="currentColor" />
</svg> 