<svg width="100%" height="100%" viewBox="0 0 10 14" fill="none"
  xmlns="http://www.w3.org/2000/svg">
  <path d="M5.00016 0.333374C2.42016 0.333374 0.333496 2.42004 0.333496 5.00004C0.333496 8.50004 5.00016 13.6667 5.00016 13.6667C5.00016 13.6667 9.66683 8.50004 9.66683 5.00004C9.66683 2.42004 7.58016 0.333374 5.00016 0.333374ZM1.66683 5.00004C1.66683 3.16004 3.16016 1.66671 5.00016 1.66671C6.84016 1.66671 8.3335 3.16004 8.3335 5.00004C8.3335 6.92004 6.4135 9.79337 5.00016 11.5867C3.6135 9.80671 1.66683 6.90004 1.66683 5.00004Z" fill="black" />
  <path d="M5.00016 6.66671C5.92064 6.66671 6.66683 5.92052 6.66683 5.00004C6.66683 4.07957 5.92064 3.33337 5.00016 3.33337C4.07969 3.33337 3.3335 4.07957 3.3335 5.00004C3.3335 5.92052 4.07969 6.66671 5.00016 6.66671Z" fill="black" />
</svg> 