<svg width="100%" height="100%" viewBox="0 0 22 20" fill="none"
  xmlns="http://www.w3.org/2000/svg">
  <path d="M11 4.47039C13.76 4.47039 16 6.71039 16 9.47039C16 9.98039 15.9 10.4704 15.76 10.9304L18.82 13.9904C20.21 12.7604 21.31 11.2204 22 9.46039C20.27 5.08039 16 1.97039 11 1.97039C9.73 1.97039 8.51 2.17039 7.36 2.54039L9.53 4.71039C10 4.57039 10.49 4.47039 11 4.47039ZM1.71 1.13039C1.32 1.52039 1.32 2.15039 1.71 2.54039L3.68 4.51039C2.06 5.80039 0.77 7.50039 0 9.47039C1.73 13.8604 6 16.9704 11 16.9704C12.52 16.9704 13.97 16.6704 15.31 16.1504L18.03 18.8704C18.42 19.2604 19.05 19.2604 19.44 18.8704C19.83 18.4804 19.83 17.8504 19.44 17.4604L3.13 1.13039C2.74 0.740391 2.1 0.740391 1.71 1.13039ZM11 14.4704C8.24 14.4704 6 12.2304 6 9.47039C6 8.70039 6.18 7.97039 6.49 7.33039L8.06 8.90039C8.03 9.08039 8 9.27039 8 9.47039C8 11.1304 9.34 12.4704 11 12.4704C11.2 12.4704 11.38 12.4404 11.57 12.4004L13.14 13.9704C12.49 14.2904 11.77 14.4704 11 14.4704ZM13.97 9.14039C13.82 7.74039 12.72 6.65039 11.33 6.50039L13.97 9.14039Z" fill="currentColor" />
</svg> 